<svg version="1.1" xmlns="http://www.w3.org/2000/svg" xmlns:xlink="http://www.w3.org/1999/xlink" width="48" height="48"><defs><linearGradient x1="6.92643" y1="9.11074" x2="78.14426" y2="75.9598" gradientUnits="userSpaceOnUse" id="color-1"><stop offset="0" stop-color="#000000" stop-opacity="0.3"></stop><stop offset="1" stop-color="#000000" stop-opacity="0"></stop></linearGradient><filter id="dropshadow-base"><feColorMatrix type="matrix" values="0 0 0 0 0  0 0 0 0 0  0 0 0 0 0  0 0 0 .8 0"></feColorMatrix> <feOffset dx="0" dy="1"></feOffset> <feGaussianBlur stdDeviation="1"></feGaussianBlur> <feComposite in="SourceGraphic"></feComposite></filter><filter id="dropshadow-banner" x="-10%" y="-10%" width="120%" height="130%"><feColorMatrix type="matrix" values="0 0 0 0 0  0 0 0 0 0  0 0 0 0 0  0 0 0 .4 0"></feColorMatrix> <feOffset dx="0" dy="1"></feOffset> <feGaussianBlur stdDeviation="0.5"></feGaussianBlur> <feComposite in="SourceGraphic"></feComposite></filter></defs><g fill="none" fill-rule="nonzero" stroke="none" stroke-width="none" stroke-linecap="butt" stroke-linejoin="miter" stroke-miterlimit="10" stroke-dasharray="" stroke-dashoffset="0" font-family="none" font-weight="none" font-size="none" text-anchor="none" style="mix-blend-mode: normal"><path d="M2,24c0,-12.15026 9.84974,-22 22,-22c12.15026,0 22,9.84974 22,22c0,12.15026 -9.84974,22 -22,22c-12.15026,0 -22,-9.84974 -22,-22z" id="base 1 5" fill="#7186d5" stroke-width="1"></path><path d="M11.63135,29.99762c-0.04041,-0.04041 -0.07098,-0.08623 -0.09245,-0.13768c-0.08725,-0.20913 0.00574,-0.41065 0.40224,-0.87169c0.57693,-0.67082 0.95925,-1.29226 1.26442,-2.0616l-4.09996,-4.09996c-0.97122,-0.97122 -1.63654,-2.3325 -1.9654,-4.03908c-0.4755,-2.46759 -0.15786,-4.52934 0.95426,-6.1941c1.22479,-1.83341 3.36957,-3.07286 5.92549,-3.42432c0.57647,-0.07927 1.68815,-0.07762 2.20698,0.00328c0.82957,0.12933 1.34478,0.33099 1.99858,0.78221c0.22484,0.15518 0.49764,0.32687 0.6062,0.38153c0.29804,0.15006 0.81671,0.31192 1.15279,0.35974c0.31745,0.04517 0.45437,0.07441 0.50967,0.12971c0,0 0,0 0,0l3.90743,3.90743c0.00667,0.00552 0.01333,0.01106 0.01999,0.01662c0.2099,0.17531 0.24427,0.19192 0.3051,0.14746c0.0377,-0.02756 0.17598,-0.12884 0.30727,-0.22505c0.89732,-0.6576 2.01306,-0.94476 3.03283,-0.78057c0.61794,0.0995 1.45023,0.46672 2.08152,0.91842c0.29158,0.20863 0.54303,0.41726 0.8354,0.70962l3.37881,3.37881c0.32125,0.15506 0.56669,0.2216 0.82698,0.22595c0.69311,0.01158 1.29037,-0.636 1.6158,-1.62604l-6.19745,-6.19745c-0.06916,-0.06916 -0.12408,-0.1396 -0.16083,-0.20847c-0.06944,-0.13015 -0.06995,-0.14082 -0.00891,-0.18588c0.04099,-0.03025 0.26131,-0.05668 0.60008,-0.072c1.04022,-0.04702 1.86088,-0.22216 3.29192,-0.70254c1.05646,-0.35463 1.37517,-0.41093 1.93594,-0.34191c0.89243,0.10983 1.67589,0.51666 2.46646,1.28081c0.02841,0.02746 0.0566,0.05517 0.08457,0.08314l6.14318,6.14318c0.67525,2.11332 1.03974,4.3655 1.03974,6.70282c0,11.00218 -8.07626,20.11804 -18.62372,21.74254z" fill="url(#color-1)" stroke-width="1"></path><path d="M26.92289,38.88163c-0.88149,-0.12906 -1.47734,-0.30731 -2.17528,-0.65076c-1.20186,-0.59142 -2.11665,-1.43372 -2.63145,-2.42294l-0.15614,-0.30003l-0.10067,0.21293c-0.14052,0.29721 -0.17269,0.31754 -0.36527,0.23076c-0.24535,-0.11056 -0.55399,-0.4427 -0.72915,-0.78468c-0.18805,-0.36714 -0.31294,-0.75788 -0.44557,-1.39395c-0.11611,-0.55687 -0.15067,-0.66446 -0.20734,-0.64554c-0.02244,0.00749 -0.11094,0.1483 -0.19667,0.31292c-0.18766,0.36033 -0.2502,0.38524 -0.46941,0.18691c-0.33971,-0.30736 -0.52969,-0.77602 -0.64523,-1.59171c-0.10437,-0.73684 -0.10851,-0.75605 -0.16301,-0.75605c-0.02722,0 -0.10468,0.12676 -0.17214,0.2817c-0.06745,0.15493 -0.14538,0.2817 -0.17317,0.2817c-0.07721,0 -0.41472,-0.72966 -0.50384,-1.08923c-0.1132,-0.45673 -0.13852,-1.30187 -0.05684,-1.89676c0.03404,-0.24789 0.0718,-0.48357 0.08391,-0.52372c0.01402,-0.04649 -0.08749,0.01847 -0.27948,0.17883c-1.17768,0.98371 -3.24175,1.72223 -4.82757,1.7273c-0.70349,0.00225 -1.0585,-0.11288 -1.16967,-0.37932c-0.08725,-0.20913 0.00574,-0.41066 0.40224,-0.87169c0.61959,-0.72043 1.01471,-1.38388 1.33088,-2.23473c0.11737,-0.31585 0.47777,-1.66202 0.55558,-2.07517l0.02299,-0.12207l-0.32723,-0.00065c-0.96504,-0.00192 -2.06854,-0.24621 -2.87996,-0.63757c-1.82298,-0.87924 -3.02252,-2.63596 -3.5032,-5.13044c-0.4755,-2.46759 -0.15787,-4.52934 0.95425,-6.1941c1.22478,-1.83341 3.36957,-3.07287 5.9255,-3.42431c0.57646,-0.07926 1.68815,-0.07762 2.20697,0.00327c0.82956,0.12934 1.34479,0.33099 1.99858,0.78221c0.22485,0.15518 0.49764,0.32687 0.6062,0.38153c0.29804,0.15006 0.81671,0.31191 1.15279,0.35974c0.46858,0.06668 0.54382,0.09863 0.54382,0.23094c0,0.43719 -0.58144,0.73503 -1.68048,0.86083c-0.37096,0.04246 -0.71134,0.03886 -2.25752,-0.02386c-0.48948,-0.01986 -0.65246,-0.01144 -1.0316,0.05325c-1.13881,0.19433 -2.15606,0.72516 -2.99936,1.56516c-0.76572,0.76272 -1.2569,1.58561 -1.51165,2.53251c-0.08321,0.30928 -0.09695,0.43841 -0.09824,0.92298c-0.00139,0.51987 0.0065,0.58661 0.10213,0.86387c0.45303,1.31358 1.78559,1.77401 3.15717,1.09087c0.64286,-0.32019 1.2284,-0.85185 1.80186,-1.63607c1.1653,-1.59359 1.82243,-2.25629 2.85035,-2.87456c1.83357,-1.10284 3.88681,-0.93008 5.56061,0.46787c0.2099,0.1753 0.24427,0.19192 0.3051,0.14746c0.0377,-0.02756 0.17597,-0.12883 0.30727,-0.22505c0.89732,-0.65761 2.01305,-0.94476 3.03283,-0.78056c0.61795,0.0995 1.45022,0.46672 2.08151,0.91842c0.65125,0.46597 1.10229,0.93195 2.2562,2.33091c0.79997,0.96986 1.30007,1.42623 1.88807,1.72298c0.35625,0.17979 0.61805,0.25583 0.89691,0.26049c1.04929,0.01754 1.87889,-1.47563 1.87829,-3.38068c-0.00034,-1.09915 -0.29549,-2.02585 -0.82233,-2.58193c-0.55868,-0.58968 -1.23599,-0.93838 -2.12395,-1.09345c-0.17334,-0.03027 -0.65723,-0.07248 -1.0753,-0.09379c-0.96004,-0.04893 -1.37502,-0.10007 -1.66473,-0.20513c-0.42542,-0.15427 -0.80061,-0.42608 -0.93447,-0.67698c-0.06944,-0.13015 -0.06995,-0.14082 -0.0089,-0.18588c0.04099,-0.03025 0.26131,-0.05668 0.60008,-0.072c1.04023,-0.04702 1.86089,-0.22216 3.29191,-0.70254c1.05646,-0.35464 1.37517,-0.41093 1.93594,-0.34191c0.89244,0.10984 1.67589,0.51667 2.46647,1.2808c1.40252,1.35561 2.27689,3.345 2.33653,5.31612c0.03717,1.22845 -0.14194,1.87018 -1.00166,3.58885c-0.68198,1.36335 -1.29094,2.06386 -2.16839,2.49436c-0.48537,0.23813 -0.97587,0.37129 -1.81554,0.49286c-0.263,0.03808 -0.47819,0.08342 -0.47819,0.10076c0,0.09868 0.48078,0.73595 0.78688,1.043c0.40807,0.40934 0.70141,0.58491 1.18212,0.70753c0.30223,0.07709 0.46881,0.19386 0.46881,0.32861c0,0.21027 -0.38383,0.51753 -0.86721,0.6942c-0.47111,0.17218 -0.90543,0.23326 -1.49559,0.21032c-1.16879,-0.04543 -2.18448,-0.51595 -3.09414,-1.43336c-0.2269,-0.22884 -0.45475,-0.47903 -0.50631,-0.55598c-0.05157,-0.07695 -0.10392,-0.14003 -0.11634,-0.14017c-0.01242,-0.00015 -0.03287,0.14763 -0.04544,0.32839c-0.01258,0.18076 -0.09077,0.60698 -0.17377,0.94716l-0.1509,0.61852l0.12134,0.12603c0.43653,0.45341 1.07094,0.65319 1.67646,0.52794c0.29989,-0.06203 0.45031,-0.02167 0.67575,0.18132c0.32875,0.29601 0.50049,0.74485 0.50049,1.30805c0,0.66376 -0.18801,1.06194 -0.76136,1.61247c-0.62616,0.60123 -0.78264,0.77407 -0.88248,0.97472c-0.17007,0.34179 -0.11029,0.54261 0.25868,0.86904c0.30718,0.27176 0.36656,0.41818 0.27113,0.66845c-0.03452,0.09053 -0.12233,0.23429 -0.19513,0.31946c-0.15946,0.18657 -0.70769,0.56074 -0.99834,0.68139l-0.21024,0.08727l0.10763,0.1488c0.24683,0.34123 0.32787,0.83767 0.20461,1.25334c-0.11717,0.39514 -0.51113,0.80279 -0.83454,0.86355c-0.09382,0.01763 -0.21158,0.00077 -0.38473,-0.05508c-0.29235,-0.0943 -0.49387,-0.10157 -0.70889,-0.0256c-0.2378,0.08402 -0.40478,0.23255 -0.51493,0.45801c-0.09406,0.19254 -0.09975,0.23428 -0.09424,0.69136c0.01014,0.84049 -0.1495,1.32596 -0.57353,1.74418c-0.41594,0.41024 -0.9748,0.61412 -1.74679,0.63725c-0.25785,0.00773 -0.51944,0.00664 -0.58132,-0.0024zM27.60868,37.48622c-0.33981,-0.66939 -0.36879,-1.1269 -0.10689,-1.68739c0.1278,-0.2735 0.43219,-0.60048 0.674,-0.72402c0.39323,-0.2009 1.15707,-0.30173 2.29131,-0.30247c1.08092,-0.0007 1.4026,-0.11904 1.50299,-0.55297c0.04354,-0.18819 -0.03931,-0.47388 -0.19037,-0.65645c-0.06599,-0.07976 -0.2224,-0.19198 -0.36643,-0.26292c-0.24594,-0.12113 -0.26169,-0.12373 -0.73938,-0.12214c-0.48762,0.00162 -0.48864,0.00181 -1.05066,0.19454c-0.7161,0.24557 -0.96608,0.28876 -1.5156,0.26189c-0.524,-0.02562 -0.76686,-0.08791 -1.25976,-0.32312c-0.88923,-0.42433 -1.72094,-1.27954 -2.00652,-2.0632c-0.09528,-0.26146 -0.12707,-0.42996 -0.1163,-0.6164c0.00725,-0.12534 0.07277,-0.06438 0.22206,0.20658c0.57587,1.04518 1.52194,1.89738 2.39056,2.15335c0.26126,0.07699 0.69005,0.08467 1.01039,0.01809c0.12377,-0.02572 0.55334,-0.13829 0.95461,-0.25015c0.40127,-0.11186 0.87383,-0.23141 1.05013,-0.26568c0.34793,-0.06763 1.05082,-0.08622 1.50195,-0.03973c0.49899,0.05142 0.81055,-0.13218 0.80278,-0.47309c-0.00458,-0.20067 -0.10836,-0.40077 -0.35219,-0.67904c-0.21744,-0.24816 -0.26306,-0.3416 -0.26306,-0.53885c0,-0.30727 0.25197,-0.60103 1.15916,-1.35143c0.53046,-0.43878 0.70658,-0.82672 0.66961,-1.47496c-0.02243,-0.39325 -0.12854,-0.65963 -0.33838,-0.84949l-0.15085,-0.13649l-0.24784,0.03005c-0.13631,0.01653 -0.39129,0.03073 -0.56663,0.03156c-0.27549,0.0013 -0.34868,-0.013 -0.53882,-0.10526c-0.58865,-0.28563 -1.16199,-1.06805 -1.50428,-2.05284c-0.18942,-0.54498 -0.43166,-0.98709 -0.95306,-1.73939c-0.66297,-0.95655 -0.70738,-1.05888 -0.58592,-1.34999c0.03073,-0.07366 0.06702,-0.27912 0.08064,-0.45657c0.01362,-0.17746 0.03663,-0.32999 0.05113,-0.33896c0.0145,-0.00897 0.06682,0.0461 0.11626,0.12238c0.14201,0.2191 0.20768,0.2355 0.6071,0.15165c0.49908,-0.10478 0.94452,-0.08187 1.24552,0.06406c0.12377,0.06 0.24018,0.11637 0.25869,0.12526c0.08735,0.04196 -0.02072,-0.5093 -0.21652,-1.10443c-0.11602,-0.35263 -0.21094,-0.68698 -0.21094,-0.74298c0,-0.23229 0.23896,-0.13324 0.52718,0.21853c0.34081,0.41595 0.4577,0.69162 0.73315,1.729c0.32077,1.2081 0.56521,1.81122 0.93211,2.2999c0.31617,0.42111 0.49555,0.48108 0.76027,0.25415c0.08435,-0.0723 0.16857,-0.13146 0.18716,-0.13146c0.01859,0 0.20202,0.16479 0.40761,0.36621c0.57347,0.56181 0.96862,0.76001 1.57191,0.78844c0.26145,0.01232 0.35445,0.00314 0.41255,-0.04073c0.07318,-0.05525 0.07227,-0.05764 -0.0375,-0.098c-0.38648,-0.14207 -0.75178,-0.48669 -1.14634,-1.08142c-0.29982,-0.45194 -0.82649,-1.50417 -1.12338,-2.24442c-0.38115,-0.95033 -0.72775,-1.52252 -1.26434,-2.08721c-0.87984,-0.92592 -1.78147,-1.35641 -2.84175,-1.35685c-0.57217,-0.00023 -0.82802,0.06868 -1.4235,0.38342c-0.5769,0.30492 -0.85143,0.40802 -1.16433,0.43726c-0.30864,0.02884 -0.54859,-0.04054 -1.43407,-0.41467c-1.45705,-0.61562 -2.14624,-0.78709 -3.17902,-0.79094c-0.69749,-0.0026 -0.81364,0.02796 -2.06849,0.54427c-0.49821,0.20499 -1.0636,0.4159 -1.25641,0.46869c-1.34195,0.36739 -1.96616,0.70079 -2.69541,1.43968c-1.12539,1.14026 -1.72127,2.6751 -1.96831,5.06983c-0.08902,0.86296 -0.26462,1.33497 -0.88956,2.39119c-0.13445,0.22724 -0.28141,0.48629 -0.32659,0.57567c-0.22164,0.43857 0.06383,0.45318 0.91849,0.047c0.74846,-0.35571 1.10158,-0.65267 1.58761,-1.33511c0.42932,-0.6028 0.50585,-0.6419 0.69531,-0.35519c0.17845,0.27005 0.20912,0.22463 0.48974,-0.7254c0.18796,-0.63632 0.37538,-1.05453 0.48138,-1.07418c0.03763,-0.00698 0.09971,0.01568 0.13796,0.05033c0.04225,0.03829 0.09866,0.05376 0.14377,0.03942c0.12487,-0.03969 0.36982,-0.33803 0.51569,-0.6281c0.31942,-0.63517 0.4173,-1.0435 0.46666,-1.94669c0.04103,-0.75075 0.14765,-1.21904 0.3891,-1.70897c0.39256,-0.79652 1.16947,-1.3304 2.03412,-1.39783c0.33211,-0.0259 0.46356,0.00299 0.46356,0.10187c0,0.09048 -0.10976,0.1652 -0.37886,0.25792c-0.33492,0.1154 -0.49368,0.21197 -0.68473,0.41651c-0.33904,0.36299 -0.48259,0.81243 -0.57043,1.78588c-0.23395,2.59284 -0.27902,2.81793 -0.77276,3.85948l-0.23581,0.49744l0.00325,0.43194c0.0036,0.4785 0.06678,0.73241 0.18226,0.73241c0.04273,0 0.12453,-0.09512 0.22611,-0.26292c0.19311,-0.31899 0.43757,-0.58217 0.54076,-0.58217c0.10657,0 0.13513,0.14888 0.08296,0.43244c-0.09266,0.50361 -0.02237,1.3524 0.20253,2.44566c0.1528,0.74278 0.34534,1.36615 0.42197,1.36615c0.01854,0 0.095,-0.12254 0.1699,-0.27231c0.24314,-0.48618 0.6269,-0.94192 0.73618,-0.87428c0.02153,0.01333 0.03915,0.08006 0.03915,0.14829c0,0.06823 0.05926,0.4602 0.13168,0.87105c0.47921,2.71849 1.20747,4.40451 2.37933,5.50854c0.67996,0.64059 1.57414,1.09235 2.53338,1.2799c0.51906,0.10149 0.67212,0.11835 0.64828,0.07139zM28.0908,29.59869c-0.0102,-0.03615 -0.02963,-0.13717 -0.04318,-0.22448c-0.03097,-0.19955 -0.15887,-0.39288 -0.29059,-0.43928c-0.08571,-0.03019 -0.12714,-0.01694 -0.27142,0.08683c-0.09364,0.06735 -0.22323,0.13767 -0.28797,0.15626c-0.379,0.10886 -0.91798,-0.34778 -0.83846,-0.71036c0.079,-0.36019 0.77579,-0.57943 1.21177,-0.38126c0.36435,0.16561 0.87088,0.8827 0.87088,1.23289c0,0.22583 -0.29901,0.46383 -0.35103,0.2794zM25.85756,29.3377c-0.34843,-0.42305 -0.44509,-1.26359 -0.20452,-1.77844c0.28987,-0.62033 1.03043,-1.01152 1.82207,-0.96246c0.77616,0.0481 1.6523,0.51158 2.48746,1.31588c0.28775,0.27712 0.31739,0.31884 0.3172,0.44653c-0.00041,0.26885 -0.25198,0.37893 -0.47334,0.2071c-0.05951,-0.04619 -0.30228,-0.25931 -0.5395,-0.4736c-1.0992,-0.99295 -1.81953,-1.25731 -2.53371,-0.92987c-0.61985,0.28419 -0.9002,1.01627 -0.76419,1.99554c0.02201,0.15849 0.03239,0.29579 0.02307,0.30513c-0.00932,0.00933 -0.06987,-0.04728 -0.13454,-0.12581zM23.65632,23.58364c-0.34479,-0.21055 -0.55002,-0.55998 -0.5717,-0.97336c-0.01826,-0.34811 0.05736,-0.55859 0.29023,-0.80792c0.19904,-0.2131 0.43275,-0.34169 0.76259,-0.41957c0.25942,-0.06125 0.86779,-0.07342 1.08986,-0.02179c0.1244,0.02892 0.14862,0.02295 0.19397,-0.04785c0.0285,-0.04449 0.07222,-0.18653 0.09714,-0.31564c0.02701,-0.13992 0.06443,-0.23475 0.09263,-0.23475c0.05458,0 0.07094,0.05826 0.13129,0.46744c0.03071,0.20823 0.07124,0.33417 0.1341,0.4167c0.14389,0.18893 0.1062,0.43517 -0.07731,0.50504c-0.06746,0.02569 -0.15607,0.0036 -0.38214,-0.09524c-0.3393,-0.14835 -0.54009,-0.16516 -0.65061,-0.05448c-0.15365,0.15387 -0.04451,0.45072 0.1657,0.45072c0.14644,0 0.21465,-0.04157 0.265,-0.1615l0.04732,-0.1127l0.04652,0.14117c0.08816,0.26752 -0.0268,0.58953 -0.27094,0.75897c-0.13096,0.09089 -0.18999,0.10648 -0.40316,0.10648c-0.20444,0 -0.27486,-0.01703 -0.38827,-0.0939c-0.14852,-0.10066 -0.32478,-0.40297 -0.32478,-0.55702c0,-0.17323 0.08744,-0.38327 0.2138,-0.51357c0.1183,-0.12199 0.12034,-0.12817 0.03116,-0.09421c-0.31272,0.11907 -0.51644,0.31816 -0.58447,0.57116c-0.07302,0.27158 0.03,0.63516 0.26371,0.93067c0.06232,0.0788 0.1133,0.16196 0.1133,0.18481c0,0.0649 -0.15681,0.04857 -0.28494,-0.02968zM31.32923,25.21483c0.01935,-0.05097 0.08644,-0.4444 0.14909,-0.8743c0.20386,-1.39885 0.13889,-2.01375 -0.24635,-2.33176c-0.11373,-0.09389 -0.33616,-0.20316 -0.26166,-0.12855c0.0127,0.01272 -0.02795,0.04461 -0.09034,0.07088c-0.2829,0.11912 -0.18633,0.52457 0.1179,0.49504c0.09042,-0.00878 0.14532,-0.04502 0.20658,-0.13639l0.08344,-0.12444l0.02551,0.13617c0.0901,0.48099 -0.21824,0.88268 -0.67756,0.88268c-0.3937,0 -0.69384,-0.30409 -0.69384,-0.70296c0,-0.33208 0.25177,-0.63321 0.56752,-0.67879l0.16382,-0.02365l-0.16877,-0.02693c-0.09282,-0.01481 -0.30379,-0.02816 -0.46881,-0.02966c-0.34057,-0.00309 -0.52602,0.06533 -0.6156,0.22715c-0.10009,0.18081 0.01518,0.37592 0.53233,0.90096c0.52871,0.53679 0.61774,0.68858 0.83479,1.42327c0.21633,0.73224 0.34242,1.01394 0.45388,1.01394c0.02908,0 0.0687,-0.0417 0.08805,-0.09267zM11.54509,22.57503c-0.07964,-0.18952 -0.24129,-0.70251 -0.2824,-0.89621c-0.0731,-0.34439 -0.06838,-0.82393 0.00887,-0.90141c0.09816,-0.09844 0.23106,-0.02039 0.59199,0.34767c0.75104,0.76588 1.32378,1.04741 2.21988,1.09119l0.43723,0.02136l0.21357,-0.33154c1.08671,-1.687 2.48708,-2.90852 3.93761,-3.43473c0.43035,-0.15612 0.60711,-0.24566 0.65246,-0.33052c0.05187,-0.09707 0.01385,-0.13772 -0.27848,-0.29774c-0.14337,-0.07848 -0.26585,-0.16958 -0.27217,-0.20243c-0.03189,-0.16586 0.89125,-0.37952 2.16723,-0.50162c0.68814,-0.06585 0.8631,-0.09164 0.86159,-0.12703c-0.00056,-0.01319 -0.13912,-0.0916 -0.3079,-0.17423c-0.4861,-0.23798 -0.50509,-0.36623 -0.0732,-0.49458c0.28715,-0.08534 1.09756,-0.08377 1.58228,0.00305c0.77914,0.13957 1.63588,0.50068 2.53053,1.06661c1.2011,0.75978 1.4055,0.864 1.85429,0.9455c0.49616,0.0901 0.93304,-0.10009 1.55631,-0.67752c0.50451,-0.4674 0.78242,-0.61884 0.96052,-0.52339c0.05674,0.03041 0.07424,0.0788 0.07424,0.20527c0,0.09114 0.02106,0.17913 0.04688,0.19587c0.02578,0.01671 0.30645,0.03039 0.62369,0.03039c0.61742,0 0.57342,-0.01256 0.67072,0.19149c0.01574,0.03301 0.14654,0.09783 0.29066,0.14404c0.30499,0.09778 0.66388,0.27448 0.95588,0.47061c0.29755,0.19987 0.31724,0.21027 0.28032,0.14805c-0.59954,-1.0102 -1.7842,-2.37267 -2.58686,-2.97513c-0.38848,-0.29159 -1.05182,-0.63306 -1.40643,-0.72399c-0.34832,-0.08932 -0.89056,-0.08178 -1.20015,0.0167c-0.28198,0.0897 -0.65502,0.30149 -0.78097,0.4434c-0.07781,0.08767 -0.08106,0.10426 -0.03035,0.15504c0.05071,0.05078 0.08411,0.04723 0.31216,-0.03315c0.20968,-0.07391 0.32921,-0.09007 0.66793,-0.09033c0.66871,-0.00051 0.71883,0.0763 0.13315,0.20404c-0.64269,0.14017 -1.07741,0.42169 -1.32293,0.85671c-0.06121,0.10845 -0.11803,0.19719 -0.12627,0.19719c-0.00824,0 -0.11814,-0.08324 -0.24421,-0.18498c-1.19813,-0.96688 -2.42733,-1.60354 -3.57234,-1.85028c-0.30796,-0.06636 -0.49868,-0.08161 -0.99942,-0.0799c-0.56788,0.00194 -0.65589,0.01176 -1.06889,0.11929c-0.58659,0.15273 -1.28787,0.4973 -1.79943,0.88414c-0.6888,0.52087 -1.36751,1.25168 -2.1837,2.35131c-0.74933,1.00955 -1.6107,1.6818 -2.56342,2.0006c-0.85571,0.28634 -1.62873,0.21709 -2.27213,-0.20354c-0.37988,-0.24835 -0.47849,-0.29478 -0.62606,-0.29478c-0.16052,0 -0.19973,0.04694 -0.25317,0.30304c-0.02342,0.11221 -0.05536,0.21778 -0.07099,0.2346c-0.07496,0.0807 -0.41194,-0.43674 -0.54111,-0.8309c-0.14775,-0.45085 -0.18518,-0.75342 -0.16089,-1.30057c0.06034,-1.35916 0.61784,-2.67154 1.71512,-4.03749c0.36905,-0.45941 0.99213,-1.05784 1.35056,-1.29712c0.40613,-0.27114 0.44809,-0.31423 0.44809,-0.46023c0,-0.10479 -0.03547,-0.16 -0.20628,-0.32101c-0.11345,-0.10695 -0.20628,-0.20648 -0.20628,-0.22118c0,-0.04476 0.10956,-0.06594 0.65633,-0.12687c0.28879,-0.03218 0.96387,-0.06849 1.50019,-0.08067c1.04195,-0.02368 1.53149,0.00631 2.34165,0.14342c0.5757,0.09743 1.39915,0.08496 1.70731,-0.02586l0.18597,-0.06688l-0.31502,-0.08348c-0.2184,-0.05788 -0.60327,-0.22887 -1.25486,-0.55753c-1.05402,-0.53164 -1.35071,-0.63025 -2.10874,-0.7009c-0.39491,-0.0368 -1.3778,0.00479 -1.43359,0.06067c-0.00938,0.00939 0.05338,0.07744 0.13945,0.15123c0.08608,0.07379 0.1565,0.16457 0.1565,0.20175c0,0.14754 -0.0567,0.15988 -1.21341,0.26402c-0.81207,0.07311 -1.836,0.33858 -2.51149,0.65113c-0.49762,0.23025 -0.49692,0.2383 0.01935,0.21986c0.49544,-0.01769 0.80914,0.03048 0.90752,0.13934c0.05617,0.06216 0.05573,0.07187 -0.00582,0.12765c-0.03664,0.03321 -0.31103,0.14731 -0.60976,0.25356c-1.44197,0.51289 -2.10724,0.99234 -2.6301,1.8955c-0.46866,0.80954 -0.85748,2.32363 -0.85694,3.33704c0.00047,0.89697 0.25849,2.00892 0.72036,3.10444c0.14507,0.3441 0.36395,0.75115 0.40395,0.75124c0.01065,0.00002 0.01361,-0.17741 0.00658,-0.3943c-0.02049,-0.63171 0.13031,-1.21229 0.35267,-1.35779c0.13171,-0.08619 0.19537,0.00638 0.31375,0.45625c0.27644,1.05055 0.71936,1.93075 1.23798,2.46024c0.31121,0.31773 0.657,0.5238 0.58285,0.34735zM37.38142,21.12813c0.27517,-0.13087 0.61872,-0.38475 0.8454,-0.62474c0.07013,-0.07425 0.28526,-0.33317 0.47807,-0.57538c0.36798,-0.46226 0.49737,-0.57872 0.59945,-0.53949c0.05149,0.01979 0.0577,0.05936 0.03752,0.23888c-0.0133,0.11834 -0.03501,0.32502 -0.04823,0.4593l-0.02404,0.24414l0.08593,-0.07512c0.24045,-0.21021 0.77707,-1.22314 0.9931,-1.87459c0.2227,-0.67156 0.29464,-1.19643 0.27075,-1.97528c-0.02281,-0.74347 -0.10383,-1.17206 -0.3444,-1.82193c-0.4615,-1.24666 -1.38381,-2.42744 -2.47949,-3.17435c-0.759,-0.5174 -1.40333,-0.75753 -2.0402,-0.76035c-0.32169,-0.00143 -0.38908,0.01137 -0.69384,0.13167c-0.71562,0.2825 -1.59561,0.45724 -2.81286,0.55856l-0.56257,0.04682l0.16877,0.07546c0.14902,0.06663 0.28506,0.07867 1.16265,0.10291c1.01893,0.02815 1.34196,0.06089 1.84449,0.18693c0.69792,0.17506 1.48384,0.52271 2.08514,0.92236c0.38601,0.25657 0.90663,0.7615 1.13236,1.09827c0.32192,0.48026 0.60124,1.21048 0.60124,1.57182c0,0.14348 -0.00932,0.16038 -0.08848,0.16038c-0.04982,0 -0.16295,-0.06565 -0.25891,-0.15024c-0.2091,-0.18433 -0.25847,-0.19044 -0.22753,-0.02817c0.03173,0.16642 0.31041,0.98193 0.48452,1.41788c0.13245,0.33162 0.14266,0.38466 0.14459,0.75119c0.00156,0.29634 -0.01501,0.43873 -0.06666,0.57278c-0.09183,0.23835 -0.17038,0.23406 -0.30668,-0.01674c-0.05833,-0.10733 -0.19277,-0.2848 -0.29875,-0.39438c-0.29524,-0.30526 -0.35845,-0.27744 -0.49211,0.21663c-0.05269,0.19476 -0.17852,0.52871 -0.27963,0.74212c-0.31503,0.66494 -0.80188,1.06212 -1.43758,1.17279c-0.4631,0.08062 -1.10826,-0.03471 -1.70179,-0.30422l-0.25092,-0.11394l0.11156,0.11742c0.16533,0.17402 0.53291,0.44282 0.76764,0.56135c0.4503,0.2274 0.67235,0.27247 1.46253,0.2969l0.73094,0.02259l0.05173,0.10829c0.06688,0.14001 0.01269,0.34014 -0.16628,0.61416c-0.07063,0.10814 -0.12842,0.21224 -0.12842,0.23135c0,0.05326 0.35101,-0.05137 0.65103,-0.19406z" id="path2996 1 1" fill="none" stroke-width="0"></path><path d="M26.92289,38.88163c-0.88149,-0.12906 -1.47734,-0.30731 -2.17528,-0.65076c-1.20186,-0.59142 -2.11665,-1.43372 -2.63145,-2.42294l-0.15614,-0.30003l-0.10067,0.21293c-0.14052,0.29721 -0.17269,0.31754 -0.36527,0.23076c-0.24535,-0.11056 -0.55399,-0.4427 -0.72915,-0.78468c-0.18805,-0.36714 -0.31294,-0.75788 -0.44557,-1.39395c-0.11611,-0.55687 -0.15067,-0.66446 -0.20734,-0.64554c-0.02244,0.00749 -0.11094,0.1483 -0.19667,0.31292c-0.18766,0.36033 -0.2502,0.38524 -0.46941,0.18691c-0.33971,-0.30736 -0.52969,-0.77602 -0.64523,-1.59171c-0.10437,-0.73684 -0.10851,-0.75605 -0.16301,-0.75605c-0.02722,0 -0.10468,0.12676 -0.17214,0.2817c-0.06745,0.15493 -0.14538,0.2817 -0.17317,0.2817c-0.07721,0 -0.41472,-0.72966 -0.50384,-1.08923c-0.1132,-0.45673 -0.13852,-1.30187 -0.05684,-1.89676c0.03404,-0.24789 0.0718,-0.48357 0.08391,-0.52372c0.01402,-0.04649 -0.08749,0.01847 -0.27948,0.17883c-1.17768,0.98371 -3.24175,1.72223 -4.82757,1.7273c-0.70349,0.00225 -1.0585,-0.11288 -1.16967,-0.37932c-0.08725,-0.20913 0.00574,-0.41066 0.40224,-0.87169c0.61959,-0.72043 1.01471,-1.38388 1.33088,-2.23473c0.11737,-0.31585 0.47777,-1.66202 0.55558,-2.07517l0.02299,-0.12207l-0.32723,-0.00065c-0.96504,-0.00192 -2.06854,-0.24621 -2.87996,-0.63757c-1.82298,-0.87924 -3.02252,-2.63596 -3.5032,-5.13044c-0.4755,-2.46759 -0.15787,-4.52934 0.95425,-6.1941c1.22478,-1.83341 3.36957,-3.07287 5.9255,-3.42431c0.57646,-0.07926 1.68815,-0.07762 2.20697,0.00327c0.82956,0.12934 1.34479,0.33099 1.99858,0.78221c0.22485,0.15518 0.49764,0.32687 0.6062,0.38153c0.29804,0.15006 0.81671,0.31191 1.15279,0.35974c0.46858,0.06668 0.54382,0.09863 0.54382,0.23094c0,0.43719 -0.58144,0.73503 -1.68048,0.86083c-0.37096,0.04246 -0.71134,0.03886 -2.25752,-0.02386c-0.48948,-0.01986 -0.65246,-0.01144 -1.0316,0.05325c-1.13881,0.19433 -2.15606,0.72516 -2.99936,1.56516c-0.76572,0.76272 -1.2569,1.58561 -1.51165,2.53251c-0.08321,0.30928 -0.09695,0.43841 -0.09824,0.92298c-0.00139,0.51987 0.0065,0.58661 0.10213,0.86387c0.45303,1.31358 1.78559,1.77401 3.15717,1.09087c0.64286,-0.32019 1.2284,-0.85185 1.80186,-1.63607c1.1653,-1.59359 1.82243,-2.25629 2.85035,-2.87456c1.83357,-1.10284 3.88681,-0.93008 5.56061,0.46787c0.2099,0.1753 0.24427,0.19192 0.3051,0.14746c0.0377,-0.02756 0.17597,-0.12883 0.30727,-0.22505c0.89732,-0.65761 2.01305,-0.94476 3.03283,-0.78056c0.61795,0.0995 1.45022,0.46672 2.08151,0.91842c0.65125,0.46597 1.10229,0.93195 2.2562,2.33091c0.79997,0.96986 1.30007,1.42623 1.88807,1.72298c0.35625,0.17979 0.61805,0.25583 0.89691,0.26049c1.04929,0.01754 1.87889,-1.47563 1.87829,-3.38068c-0.00034,-1.09915 -0.29549,-2.02585 -0.82233,-2.58193c-0.55868,-0.58968 -1.23599,-0.93838 -2.12395,-1.09345c-0.17334,-0.03027 -0.65723,-0.07248 -1.0753,-0.09379c-0.96004,-0.04893 -1.37502,-0.10007 -1.66473,-0.20513c-0.42542,-0.15427 -0.80061,-0.42608 -0.93447,-0.67698c-0.06944,-0.13015 -0.06995,-0.14082 -0.0089,-0.18588c0.04099,-0.03025 0.26131,-0.05668 0.60008,-0.072c1.04023,-0.04702 1.86089,-0.22216 3.29191,-0.70254c1.05646,-0.35464 1.37517,-0.41093 1.93594,-0.34191c0.89244,0.10984 1.67589,0.51667 2.46647,1.2808c1.40252,1.35561 2.27689,3.345 2.33653,5.31612c0.03717,1.22845 -0.14194,1.87018 -1.00166,3.58885c-0.68198,1.36335 -1.29094,2.06386 -2.16839,2.49436c-0.48537,0.23813 -0.97587,0.37129 -1.81554,0.49286c-0.263,0.03808 -0.47819,0.08342 -0.47819,0.10076c0,0.09868 0.48078,0.73595 0.78688,1.043c0.40807,0.40934 0.70141,0.58491 1.18212,0.70753c0.30223,0.07709 0.46881,0.19386 0.46881,0.32861c0,0.21027 -0.38383,0.51753 -0.86721,0.6942c-0.47111,0.17218 -0.90543,0.23326 -1.49559,0.21032c-1.16879,-0.04543 -2.18448,-0.51595 -3.09414,-1.43336c-0.2269,-0.22884 -0.45475,-0.47903 -0.50631,-0.55598c-0.05157,-0.07695 -0.10392,-0.14003 -0.11634,-0.14017c-0.01242,-0.00015 -0.03287,0.14763 -0.04544,0.32839c-0.01258,0.18076 -0.09077,0.60698 -0.17377,0.94716l-0.1509,0.61852l0.12134,0.12603c0.43653,0.45341 1.07094,0.65319 1.67646,0.52794c0.29989,-0.06203 0.45031,-0.02167 0.67575,0.18132c0.32875,0.29601 0.50049,0.74485 0.50049,1.30805c0,0.66376 -0.18801,1.06194 -0.76136,1.61247c-0.62616,0.60123 -0.78264,0.77407 -0.88248,0.97472c-0.17007,0.34179 -0.11029,0.54261 0.25868,0.86904c0.30718,0.27176 0.36656,0.41818 0.27113,0.66845c-0.03452,0.09053 -0.12233,0.23429 -0.19513,0.31946c-0.15946,0.18657 -0.70769,0.56074 -0.99834,0.68139l-0.21024,0.08727l0.10763,0.1488c0.24683,0.34123 0.32787,0.83767 0.20461,1.25334c-0.11717,0.39514 -0.51113,0.80279 -0.83454,0.86355c-0.09382,0.01763 -0.21158,0.00077 -0.38473,-0.05508c-0.29235,-0.0943 -0.49387,-0.10157 -0.70889,-0.0256c-0.2378,0.08402 -0.40478,0.23255 -0.51493,0.45801c-0.09406,0.19254 -0.09975,0.23428 -0.09424,0.69136c0.01014,0.84049 -0.1495,1.32596 -0.57353,1.74418c-0.41594,0.41024 -0.9748,0.61412 -1.74679,0.63725c-0.25785,0.00773 -0.51944,0.00664 -0.58132,-0.0024zM27.60868,37.48622c-0.33981,-0.66939 -0.36879,-1.1269 -0.10689,-1.68739c0.1278,-0.2735 0.43219,-0.60048 0.674,-0.72402c0.39323,-0.2009 1.15707,-0.30173 2.29131,-0.30247c1.08092,-0.0007 1.4026,-0.11904 1.50299,-0.55297c0.04354,-0.18819 -0.03931,-0.47388 -0.19037,-0.65645c-0.06599,-0.07976 -0.2224,-0.19198 -0.36643,-0.26292c-0.24594,-0.12113 -0.26169,-0.12373 -0.73938,-0.12214c-0.48762,0.00162 -0.48864,0.00181 -1.05066,0.19454c-0.7161,0.24557 -0.96608,0.28876 -1.5156,0.26189c-0.524,-0.02562 -0.76686,-0.08791 -1.25976,-0.32312c-0.88923,-0.42433 -1.72094,-1.27954 -2.00652,-2.0632c-0.09528,-0.26146 -0.12707,-0.42996 -0.1163,-0.6164c0.00725,-0.12534 0.07277,-0.06438 0.22206,0.20658c0.57587,1.04518 1.52194,1.89738 2.39056,2.15335c0.26126,0.07699 0.69005,0.08467 1.01039,0.01809c0.12377,-0.02572 0.55334,-0.13829 0.95461,-0.25015c0.40127,-0.11186 0.87383,-0.23141 1.05013,-0.26568c0.34793,-0.06763 1.05082,-0.08622 1.50195,-0.03973c0.49899,0.05142 0.81055,-0.13218 0.80278,-0.47309c-0.00458,-0.20067 -0.10836,-0.40077 -0.35219,-0.67904c-0.21744,-0.24816 -0.26306,-0.3416 -0.26306,-0.53885c0,-0.30727 0.25197,-0.60103 1.15916,-1.35143c0.53046,-0.43878 0.70658,-0.82672 0.66961,-1.47496c-0.02243,-0.39325 -0.12854,-0.65963 -0.33838,-0.84949l-0.15085,-0.13649l-0.24784,0.03005c-0.13631,0.01653 -0.39129,0.03073 -0.56663,0.03156c-0.27549,0.0013 -0.34868,-0.013 -0.53882,-0.10526c-0.58865,-0.28563 -1.16199,-1.06805 -1.50428,-2.05284c-0.18942,-0.54498 -0.43166,-0.98709 -0.95306,-1.73939c-0.66297,-0.95655 -0.70738,-1.05888 -0.58592,-1.34999c0.03073,-0.07366 0.06702,-0.27912 0.08064,-0.45657c0.01362,-0.17746 0.03663,-0.32999 0.05113,-0.33896c0.0145,-0.00897 0.06682,0.0461 0.11626,0.12238c0.14201,0.2191 0.20768,0.2355 0.6071,0.15165c0.49908,-0.10478 0.94452,-0.08187 1.24552,0.06406c0.12377,0.06 0.24018,0.11637 0.25869,0.12526c0.08735,0.04196 -0.02072,-0.5093 -0.21652,-1.10443c-0.11602,-0.35263 -0.21094,-0.68698 -0.21094,-0.74298c0,-0.23229 0.23896,-0.13324 0.52718,0.21853c0.34081,0.41595 0.4577,0.69162 0.73315,1.729c0.32077,1.2081 0.56521,1.81122 0.93211,2.2999c0.31617,0.42111 0.49555,0.48108 0.76027,0.25415c0.08435,-0.0723 0.16857,-0.13146 0.18716,-0.13146c0.01859,0 0.20202,0.16479 0.40761,0.36621c0.57347,0.56181 0.96862,0.76001 1.57191,0.78844c0.26145,0.01232 0.35445,0.00314 0.41255,-0.04073c0.07318,-0.05525 0.07227,-0.05764 -0.0375,-0.098c-0.38648,-0.14207 -0.75178,-0.48669 -1.14634,-1.08142c-0.29982,-0.45194 -0.82649,-1.50417 -1.12338,-2.24442c-0.38115,-0.95033 -0.72775,-1.52252 -1.26434,-2.08721c-0.87984,-0.92592 -1.78147,-1.35641 -2.84175,-1.35685c-0.57217,-0.00023 -0.82802,0.06868 -1.4235,0.38342c-0.5769,0.30492 -0.85143,0.40802 -1.16433,0.43726c-0.30864,0.02884 -0.54859,-0.04054 -1.43407,-0.41467c-1.45705,-0.61562 -2.14624,-0.78709 -3.17902,-0.79094c-0.69749,-0.0026 -0.81364,0.02796 -2.06849,0.54427c-0.49821,0.20499 -1.0636,0.4159 -1.25641,0.46869c-1.34195,0.36739 -1.96616,0.70079 -2.69541,1.43968c-1.12539,1.14026 -1.72127,2.6751 -1.96831,5.06983c-0.08902,0.86296 -0.26462,1.33497 -0.88956,2.39119c-0.13445,0.22724 -0.28141,0.48629 -0.32659,0.57567c-0.22164,0.43857 0.06383,0.45318 0.91849,0.047c0.74846,-0.35571 1.10158,-0.65267 1.58761,-1.33511c0.42932,-0.6028 0.50585,-0.6419 0.69531,-0.35519c0.17845,0.27005 0.20912,0.22463 0.48974,-0.7254c0.18796,-0.63632 0.37538,-1.05453 0.48138,-1.07418c0.03763,-0.00698 0.09971,0.01568 0.13796,0.05033c0.04225,0.03829 0.09866,0.05376 0.14377,0.03942c0.12487,-0.03969 0.36982,-0.33803 0.51569,-0.6281c0.31942,-0.63517 0.4173,-1.0435 0.46666,-1.94669c0.04103,-0.75075 0.14765,-1.21904 0.3891,-1.70897c0.39256,-0.79652 1.16947,-1.3304 2.03412,-1.39783c0.33211,-0.0259 0.46356,0.00299 0.46356,0.10187c0,0.09048 -0.10976,0.1652 -0.37886,0.25792c-0.33492,0.1154 -0.49368,0.21197 -0.68473,0.41651c-0.33904,0.36299 -0.48259,0.81243 -0.57043,1.78588c-0.23395,2.59284 -0.27902,2.81793 -0.77276,3.85948l-0.23581,0.49744l0.00325,0.43194c0.0036,0.4785 0.06678,0.73241 0.18226,0.73241c0.04273,0 0.12453,-0.09512 0.22611,-0.26292c0.19311,-0.31899 0.43757,-0.58217 0.54076,-0.58217c0.10657,0 0.13513,0.14888 0.08296,0.43244c-0.09266,0.50361 -0.02237,1.3524 0.20253,2.44566c0.1528,0.74278 0.34534,1.36615 0.42197,1.36615c0.01854,0 0.095,-0.12254 0.1699,-0.27231c0.24314,-0.48618 0.6269,-0.94192 0.73618,-0.87428c0.02153,0.01333 0.03915,0.08006 0.03915,0.14829c0,0.06823 0.05926,0.4602 0.13168,0.87105c0.47921,2.71849 1.20747,4.40451 2.37933,5.50854c0.67996,0.64059 1.57414,1.09235 2.53338,1.2799c0.51906,0.10149 0.67212,0.11835 0.64828,0.07139zM28.0908,29.59869c-0.0102,-0.03615 -0.02963,-0.13717 -0.04318,-0.22448c-0.03097,-0.19955 -0.15887,-0.39288 -0.29059,-0.43928c-0.08571,-0.03019 -0.12714,-0.01694 -0.27142,0.08683c-0.09364,0.06735 -0.22323,0.13767 -0.28797,0.15626c-0.379,0.10886 -0.91798,-0.34778 -0.83846,-0.71036c0.079,-0.36019 0.77579,-0.57943 1.21177,-0.38126c0.36435,0.16561 0.87088,0.8827 0.87088,1.23289c0,0.22583 -0.29901,0.46383 -0.35103,0.2794zM25.85756,29.3377c-0.34843,-0.42305 -0.44509,-1.26359 -0.20452,-1.77844c0.28987,-0.62033 1.03043,-1.01152 1.82207,-0.96246c0.77616,0.0481 1.6523,0.51158 2.48746,1.31588c0.28775,0.27712 0.31739,0.31884 0.3172,0.44653c-0.00041,0.26885 -0.25198,0.37893 -0.47334,0.2071c-0.05951,-0.04619 -0.30228,-0.25931 -0.5395,-0.4736c-1.0992,-0.99295 -1.81953,-1.25731 -2.53371,-0.92987c-0.61985,0.28419 -0.9002,1.01627 -0.76419,1.99554c0.02201,0.15849 0.03239,0.29579 0.02307,0.30513c-0.00932,0.00933 -0.06987,-0.04728 -0.13454,-0.12581zM23.65632,23.58364c-0.34479,-0.21055 -0.55002,-0.55998 -0.5717,-0.97336c-0.01826,-0.34811 0.05736,-0.55859 0.29023,-0.80792c0.19904,-0.2131 0.43275,-0.34169 0.76259,-0.41957c0.25942,-0.06125 0.86779,-0.07342 1.08986,-0.02179c0.1244,0.02892 0.14862,0.02295 0.19397,-0.04785c0.0285,-0.04449 0.07222,-0.18653 0.09714,-0.31564c0.02701,-0.13992 0.06443,-0.23475 0.09263,-0.23475c0.05458,0 0.07094,0.05826 0.13129,0.46744c0.03071,0.20823 0.07124,0.33417 0.1341,0.4167c0.14389,0.18893 0.1062,0.43517 -0.07731,0.50504c-0.06746,0.02569 -0.15607,0.0036 -0.38214,-0.09524c-0.3393,-0.14835 -0.54009,-0.16516 -0.65061,-0.05448c-0.15365,0.15387 -0.04451,0.45072 0.1657,0.45072c0.14644,0 0.21465,-0.04157 0.265,-0.1615l0.04732,-0.1127l0.04652,0.14117c0.08816,0.26752 -0.0268,0.58953 -0.27094,0.75897c-0.13096,0.09089 -0.18999,0.10648 -0.40316,0.10648c-0.20444,0 -0.27486,-0.01703 -0.38827,-0.0939c-0.14852,-0.10066 -0.32478,-0.40297 -0.32478,-0.55702c0,-0.17323 0.08744,-0.38327 0.2138,-0.51357c0.1183,-0.12199 0.12034,-0.12817 0.03116,-0.09421c-0.31272,0.11907 -0.51644,0.31816 -0.58447,0.57116c-0.07302,0.27158 0.03,0.63516 0.26371,0.93067c0.06232,0.0788 0.1133,0.16196 0.1133,0.18481c0,0.0649 -0.15681,0.04857 -0.28494,-0.02968zM31.32923,25.21483c0.01935,-0.05097 0.08644,-0.4444 0.14909,-0.8743c0.20386,-1.39885 0.13889,-2.01375 -0.24635,-2.33176c-0.11373,-0.09389 -0.33616,-0.20316 -0.26166,-0.12855c0.0127,0.01272 -0.02795,0.04461 -0.09034,0.07088c-0.2829,0.11912 -0.18633,0.52457 0.1179,0.49504c0.09042,-0.00878 0.14532,-0.04502 0.20658,-0.13639l0.08344,-0.12444l0.02551,0.13617c0.0901,0.48099 -0.21824,0.88268 -0.67756,0.88268c-0.3937,0 -0.69384,-0.30409 -0.69384,-0.70296c0,-0.33208 0.25177,-0.63321 0.56752,-0.67879l0.16382,-0.02365l-0.16877,-0.02693c-0.09282,-0.01481 -0.30379,-0.02816 -0.46881,-0.02966c-0.34057,-0.00309 -0.52602,0.06533 -0.6156,0.22715c-0.10009,0.18081 0.01518,0.37592 0.53233,0.90096c0.52871,0.53679 0.61774,0.68858 0.83479,1.42327c0.21633,0.73224 0.34242,1.01394 0.45388,1.01394c0.02908,0 0.0687,-0.0417 0.08805,-0.09267zM11.54509,22.57503c-0.07964,-0.18952 -0.24129,-0.70251 -0.2824,-0.89621c-0.0731,-0.34439 -0.06838,-0.82393 0.00887,-0.90141c0.09816,-0.09844 0.23106,-0.02039 0.59199,0.34767c0.75104,0.76588 1.32378,1.04741 2.21988,1.09119l0.43723,0.02136l0.21357,-0.33154c1.08671,-1.687 2.48708,-2.90852 3.93761,-3.43473c0.43035,-0.15612 0.60711,-0.24566 0.65246,-0.33052c0.05187,-0.09707 0.01385,-0.13772 -0.27848,-0.29774c-0.14337,-0.07848 -0.26585,-0.16958 -0.27217,-0.20243c-0.03189,-0.16586 0.89125,-0.37952 2.16723,-0.50162c0.68814,-0.06585 0.8631,-0.09164 0.86159,-0.12703c-0.00056,-0.01319 -0.13912,-0.0916 -0.3079,-0.17423c-0.4861,-0.23798 -0.50509,-0.36623 -0.0732,-0.49458c0.28715,-0.08534 1.09756,-0.08377 1.58228,0.00305c0.77914,0.13957 1.63588,0.50068 2.53053,1.06661c1.2011,0.75978 1.4055,0.864 1.85429,0.9455c0.49616,0.0901 0.93304,-0.10009 1.55631,-0.67752c0.50451,-0.4674 0.78242,-0.61884 0.96052,-0.52339c0.05674,0.03041 0.07424,0.0788 0.07424,0.20527c0,0.09114 0.02106,0.17913 0.04688,0.19587c0.02578,0.01671 0.30645,0.03039 0.62369,0.03039c0.61742,0 0.57342,-0.01256 0.67072,0.19149c0.01574,0.03301 0.14654,0.09783 0.29066,0.14404c0.30499,0.09778 0.66388,0.27448 0.95588,0.47061c0.29755,0.19987 0.31724,0.21027 0.28032,0.14805c-0.59954,-1.0102 -1.7842,-2.37267 -2.58686,-2.97513c-0.38848,-0.29159 -1.05182,-0.63306 -1.40643,-0.72399c-0.34832,-0.08932 -0.89056,-0.08178 -1.20015,0.0167c-0.28198,0.0897 -0.65502,0.30149 -0.78097,0.4434c-0.07781,0.08767 -0.08106,0.10426 -0.03035,0.15504c0.05071,0.05078 0.08411,0.04723 0.31216,-0.03315c0.20968,-0.07391 0.32921,-0.09007 0.66793,-0.09033c0.66871,-0.00051 0.71883,0.0763 0.13315,0.20404c-0.64269,0.14017 -1.07741,0.42169 -1.32293,0.85671c-0.06121,0.10845 -0.11803,0.19719 -0.12627,0.19719c-0.00824,0 -0.11814,-0.08324 -0.24421,-0.18498c-1.19813,-0.96688 -2.42733,-1.60354 -3.57234,-1.85028c-0.30796,-0.06636 -0.49868,-0.08161 -0.99942,-0.0799c-0.56788,0.00194 -0.65589,0.01176 -1.06889,0.11929c-0.58659,0.15273 -1.28787,0.4973 -1.79943,0.88414c-0.6888,0.52087 -1.36751,1.25168 -2.1837,2.35131c-0.74933,1.00955 -1.6107,1.6818 -2.56342,2.0006c-0.85571,0.28634 -1.62873,0.21709 -2.27213,-0.20354c-0.37988,-0.24835 -0.47849,-0.29478 -0.62606,-0.29478c-0.16052,0 -0.19973,0.04694 -0.25317,0.30304c-0.02342,0.11221 -0.05536,0.21778 -0.07099,0.2346c-0.07496,0.0807 -0.41194,-0.43674 -0.54111,-0.8309c-0.14775,-0.45085 -0.18518,-0.75342 -0.16089,-1.30057c0.06034,-1.35916 0.61784,-2.67154 1.71512,-4.03749c0.36905,-0.45941 0.99213,-1.05784 1.35056,-1.29712c0.40613,-0.27114 0.44809,-0.31423 0.44809,-0.46023c0,-0.10479 -0.03547,-0.16 -0.20628,-0.32101c-0.11345,-0.10695 -0.20628,-0.20648 -0.20628,-0.22118c0,-0.04476 0.10956,-0.06594 0.65633,-0.12687c0.28879,-0.03218 0.96387,-0.06849 1.50019,-0.08067c1.04195,-0.02368 1.53149,0.00631 2.34165,0.14342c0.5757,0.09743 1.39915,0.08496 1.70731,-0.02586l0.18597,-0.06688l-0.31502,-0.08348c-0.2184,-0.05788 -0.60327,-0.22887 -1.25486,-0.55753c-1.05402,-0.53164 -1.35071,-0.63025 -2.10874,-0.7009c-0.39491,-0.0368 -1.3778,0.00479 -1.43359,0.06067c-0.00938,0.00939 0.05338,0.07744 0.13945,0.15123c0.08608,0.07379 0.1565,0.16457 0.1565,0.20175c0,0.14754 -0.0567,0.15988 -1.21341,0.26402c-0.81207,0.07311 -1.836,0.33858 -2.51149,0.65113c-0.49762,0.23025 -0.49692,0.2383 0.01935,0.21986c0.49544,-0.01769 0.80914,0.03048 0.90752,0.13934c0.05617,0.06216 0.05573,0.07187 -0.00582,0.12765c-0.03664,0.03321 -0.31103,0.14731 -0.60976,0.25356c-1.44197,0.51289 -2.10724,0.99234 -2.6301,1.8955c-0.46866,0.80954 -0.85748,2.32363 -0.85694,3.33704c0.00047,0.89697 0.25849,2.00892 0.72036,3.10444c0.14507,0.3441 0.36395,0.75115 0.40395,0.75124c0.01065,0.00002 0.01361,-0.17741 0.00658,-0.3943c-0.02049,-0.63171 0.13031,-1.21229 0.35267,-1.35779c0.13171,-0.08619 0.19537,0.00638 0.31375,0.45625c0.27644,1.05055 0.71936,1.93075 1.23798,2.46024c0.31121,0.31773 0.657,0.5238 0.58285,0.34735zM37.38142,21.12813c0.27517,-0.13087 0.61872,-0.38475 0.8454,-0.62474c0.07013,-0.07425 0.28526,-0.33317 0.47807,-0.57538c0.36798,-0.46226 0.49737,-0.57872 0.59945,-0.53949c0.05149,0.01979 0.0577,0.05936 0.03752,0.23888c-0.0133,0.11834 -0.03501,0.32502 -0.04823,0.4593l-0.02404,0.24414l0.08593,-0.07512c0.24045,-0.21021 0.77707,-1.22314 0.9931,-1.87459c0.2227,-0.67156 0.29464,-1.19643 0.27075,-1.97528c-0.02281,-0.74347 -0.10383,-1.17206 -0.3444,-1.82193c-0.4615,-1.24666 -1.38381,-2.42744 -2.47949,-3.17435c-0.759,-0.5174 -1.40333,-0.75753 -2.0402,-0.76035c-0.32169,-0.00143 -0.38908,0.01137 -0.69384,0.13167c-0.71562,0.2825 -1.59561,0.45724 -2.81286,0.55856l-0.56257,0.04682l0.16877,0.07546c0.14902,0.06663 0.28506,0.07867 1.16265,0.10291c1.01893,0.02815 1.34196,0.06089 1.84449,0.18693c0.69792,0.17506 1.48384,0.52271 2.08514,0.92236c0.38601,0.25657 0.90663,0.7615 1.13236,1.09827c0.32192,0.48026 0.60124,1.21048 0.60124,1.57182c0,0.14348 -0.00932,0.16038 -0.08848,0.16038c-0.04982,0 -0.16295,-0.06565 -0.25891,-0.15024c-0.2091,-0.18433 -0.25847,-0.19044 -0.22753,-0.02817c0.03173,0.16642 0.31041,0.98193 0.48452,1.41788c0.13245,0.33162 0.14266,0.38466 0.14459,0.75119c0.00156,0.29634 -0.01501,0.43873 -0.06666,0.57278c-0.09183,0.23835 -0.17038,0.23406 -0.30668,-0.01674c-0.05833,-0.10733 -0.19277,-0.2848 -0.29875,-0.39438c-0.29524,-0.30526 -0.35845,-0.27744 -0.49211,0.21663c-0.05269,0.19476 -0.17852,0.52871 -0.27963,0.74212c-0.31503,0.66494 -0.80188,1.06212 -1.43758,1.17279c-0.4631,0.08062 -1.10826,-0.03471 -1.70179,-0.30422l-0.25092,-0.11394l0.11156,0.11742c0.16533,0.17402 0.53291,0.44282 0.76764,0.56135c0.4503,0.2274 0.67235,0.27247 1.46253,0.2969l0.73094,0.02259l0.05173,0.10829c0.06688,0.14001 0.01269,0.34014 -0.16628,0.61416c-0.07063,0.10814 -0.12842,0.21224 -0.12842,0.23135c0,0.05326 0.35101,-0.05137 0.65103,-0.19406z" id="path2996 1 1" fill="#ffffff" stroke-width="0"></path><path d="M2,24c0,-12.15026 9.84974,-22 22,-22c12.15026,0 22,9.84974 22,22c0,12.15026 -9.84974,22 -22,22c-12.15026,0 -22,-9.84974 -22,-22z" id="base 1 1 1" fill="none" stroke-width="1"></path><g id="svg2 1 1" fill="#000000" stroke-width="1" font-family="Roboto, sans-serif" font-weight="400" font-size="14" text-anchor="start"><g id="layer1 1 1"></g></g><rect x="2" y="2" width="44" height="22" fill="none" stroke-width="1"></rect><path d="M2,24v-22h44v22z" fill="none" stroke-width="1"></path><path d="M2,24v-22h44v22z" fill="none" stroke-width="1"></path><path d="M2,24v-22h44v22z" fill="none" stroke-width="1"></path><path d="M2,24v-22h44v22z" fill="none" stroke-width="1"></path></g></svg>